<svg version="1.0" xmlns="http://www.w3.org/2000/svg" width="1200" height="1200"><path fill="#0072C6" d="M1031.086 702.183c-.769 0-1.512-.1-2.277-.115-22.186 59.867-63.348 110.478-116.152 144.66.091 1.846.28 3.668.28 5.537 0 61.725-50.038 111.763-111.763 111.763-22.386 0-43.189-6.65-60.671-17.984V758.485c17.482-11.334 38.285-17.984 60.671-17.984 42.241 0 78.987 23.447 97.991 58.023 37.681-26.527 67.466-63.48 85.151-106.699-38.335-17.714-64.992-56.403-64.992-101.406 0-42.197 23.401-78.906 57.919-97.927-19.789-39.972-50.263-73.681-87.694-97.451-17.828 38.043-56.356 64.455-101.147 64.455-17.167 0-33.365-3.984-47.898-10.9V246.87c14.534-6.916 30.732-10.9 47.898-10.9 60.991 0 110.482 48.877 111.653 109.588 53.045 30.667 95.58 77.411 120.981 133.605 3.317-.296 6.658-.508 10.052-.508 61.725 0 111.763 50.038 111.763 111.763s-50.04 111.765-111.765 111.765zM57.151 165.721v868.558l645.032 114.956 6.387-1098.47L57.151 165.721zM466.176 749.16c-24.827 24.49-58.535 36.733-101.129 36.733-24.627 0-46.091-2.897-64.39-8.682-18.304-5.785-35.44-13.132-51.413-22.04v-95.373h8.385c15.839 16.922 33.575 29.921 53.21 39.004 19.632 9.083 38.5 13.625 56.604 13.625 4.658 0 10.782-.534 18.369-1.603 7.587-1.068 13.777-2.847 18.569-5.343 5.856-3.206 10.682-7.214 14.476-12.022 3.794-4.809 5.69-11.93 5.69-21.372 0-8.724-2.764-16.25-8.286-22.574-5.525-6.32-13.611-11.174-24.259-14.56-11.181-3.56-22.995-6.9-35.44-10.019-12.448-3.114-24.128-7.08-35.041-11.888-25.027-10.861-43.027-25.601-54.008-44.214-10.982-18.609-16.472-41.717-16.472-69.326 0-37.042 12.41-67.276 37.236-90.698 24.824-23.418 56.736-35.131 95.738-35.131 19.567 0 38.9 2.538 58.001 7.614 19.099 5.076 35.64 11.446 49.616 19.101v91.633h-8.186c-11.98-12.823-26.655-23.55-44.025-32.191-17.371-8.636-35.109-12.957-53.209-12.957-6.39 0-12.748.581-19.068 1.737-6.323 1.16-12.414 3.339-18.269 6.546-5.191 2.671-9.653 6.724-13.377 12.155-3.728 5.435-5.591 11.621-5.591 18.566 0 10.511 2.996 18.567 8.985 24.177 5.99 5.61 17.302 10.732 33.942 15.362a6353.286 6353.286 0 0 1 31.447 8.816c10.049 2.851 20.864 6.771 32.444 11.755 22.762 9.977 39.564 23.556 50.415 40.741 10.847 17.19 16.273 39.497 16.273 66.922 0 39.184-12.414 71.021-37.237 95.506z"/></svg>