<svg version="1.1" id="H1PBoEvk7" xmlns="http://www.w3.org/2000/svg" xmlns:xlink="http://www.w3.org/1999/xlink" x="0px" y="0px" viewBox="0 0 100 112" style="enable-background:new 0 0 100 112.8;" xml:space="preserve"><style>@-webkit-keyframes HkmPBiVDyQ_Animation{0%{opacity: 1;}33.33%{opacity: 0.8;}66.67%{opacity: 0.5;}100%{opacity: 0;}}@keyframes HkmPBiVDyQ_Animation{0%{opacity: 1;}33.33%{opacity: 0.8;}66.67%{opacity: 0.5;}100%{opacity: 0;}}@-webkit-keyframes HkmPBiVDyQ_ryOynEvyQ_Animation{0%{-webkit-transform: translate(0px, 0px);transform: translate(0px, 0px);}33.33%{-webkit-transform: translate(0px, 10px);transform: translate(0px, 10px);}66.67%{-webkit-transform: translate(0px, 20px);transform: translate(0px, 20px);}100%{-webkit-transform: translate(0px, 30px);transform: translate(0px, 30px);}}@keyframes HkmPBiVDyQ_ryOynEvyQ_Animation{0%{-webkit-transform: translate(0px, 0px);transform: translate(0px, 0px);}33.33%{-webkit-transform: translate(0px, 10px);transform: translate(0px, 10px);}66.67%{-webkit-transform: translate(0px, 20px);transform: translate(0px, 20px);}100%{-webkit-transform: translate(0px, 30px);transform: translate(0px, 30px);}}@-webkit-keyframes rJbPHsED17_Animation{0%{opacity: 1;}33.33%{opacity: 0.7;}66.67%{opacity: 0.4;}100%{opacity: 0;}}@keyframes rJbPHsED17_Animation{0%{opacity: 1;}33.33%{opacity: 0.7;}66.67%{opacity: 0.4;}100%{opacity: 0;}}@-webkit-keyframes rJbPHsED17_HJ0I3NDkm_Animation{0%{-webkit-transform: translate(0px, 0px);transform: translate(0px, 0px);}33.33%{-webkit-transform: translate(10px, 0px);transform: translate(10px, 0px);}66.67%{-webkit-transform: translate(20px, 0px);transform: translate(20px, 0px);}100%{-webkit-transform: translate(25px, 0px);transform: translate(25px, 0px);}}@keyframes rJbPHsED17_HJ0I3NDkm_Animation{0%{-webkit-transform: translate(0px, 0px);transform: translate(0px, 0px);}33.33%{-webkit-transform: translate(10px, 0px);transform: translate(10px, 0px);}66.67%{-webkit-transform: translate(20px, 0px);transform: translate(20px, 0px);}100%{-webkit-transform: translate(25px, 0px);transform: translate(25px, 0px);}}@-webkit-keyframes ryxwSjEwkX_BygwsVPkQ_Animation{0%{-webkit-transform: translate(0px, 0px);transform: translate(0px, 0px);}33.33%{-webkit-transform: translate(10px, 10px);transform: translate(10px, 10px);}66.67%{-webkit-transform: translate(0px, 0px);transform: translate(0px, 0px);}100%{-webkit-transform: translate(-10px, -10px);transform: translate(-10px, -10px);}}@keyframes ryxwSjEwkX_BygwsVPkQ_Animation{0%{-webkit-transform: translate(0px, 0px);transform: translate(0px, 0px);}33.33%{-webkit-transform: translate(10px, 10px);transform: translate(10px, 10px);}66.67%{-webkit-transform: translate(0px, 0px);transform: translate(0px, 0px);}100%{-webkit-transform: translate(-10px, -10px);transform: translate(-10px, -10px);}}#H1PBoEvk7 *{-webkit-animation-duration: 3s;animation-duration: 3s;-webkit-animation-iteration-count: infinite;animation-iteration-count: infinite;-webkit-animation-timing-function: cubic-bezier(0, 0, 1, 1);animation-timing-function: cubic-bezier(0, 0, 1, 1);}#ryxwSjEwkX{fill: url(#SVGID_1_);}#HJfvBjEw1Q{fill: #EA47DA;}#HJ4PSiVv17{fill: #D87E25;}#ryxwSjEwkX_BygwsVPkQ{-webkit-animation-name: ryxwSjEwkX_BygwsVPkQ_Animation;animation-name: ryxwSjEwkX_BygwsVPkQ_Animation;-webkit-animation-timing-function: cubic-bezier(0.42, 0, 0.58, 1);animation-timing-function: cubic-bezier(0.42, 0, 0.58, 1);-webkit-transform-origin: 50% 50%;transform-origin: 50% 50%;transform-box: fill-box;-webkit-transform: translate(0px, 0px);transform: translate(0px, 0px);}#rJbPHsED17_HJ0I3NDkm{-webkit-animation-name: rJbPHsED17_HJ0I3NDkm_Animation;animation-name: rJbPHsED17_HJ0I3NDkm_Animation;-webkit-transform-origin: 50% 50%;transform-origin: 50% 50%;transform-box: fill-box;-webkit-transform: translate(0px, 0px);transform: translate(0px, 0px);}#rJbPHsED17{-webkit-animation-name: rJbPHsED17_Animation;animation-name: rJbPHsED17_Animation;-webkit-transform-origin: 50% 50%;transform-origin: 50% 50%;transform-box: fill-box;opacity: 1;}#HkmPBiVDyQ_ryOynEvyQ{-webkit-animation-name: HkmPBiVDyQ_ryOynEvyQ_Animation;animation-name: HkmPBiVDyQ_ryOynEvyQ_Animation;-webkit-transform-origin: 50% 50%;transform-origin: 50% 50%;transform-box: fill-box;-webkit-transform: translate(0px, 0px);transform: translate(0px, 0px);}#HkmPBiVDyQ{-webkit-animation-name: HkmPBiVDyQ_Animation;animation-name: HkmPBiVDyQ_Animation;-webkit-transform-origin: 50% 50%;transform-origin: 50% 50%;transform-box: fill-box;opacity: 1;}</style>

<linearGradient id="SVGID_1_" gradientUnits="userSpaceOnUse" x1="15.127" y1="60" x2="84.872" y2="60">
	<stop offset="0" style="stop-color:#70C9C2"/>
	<stop offset="1" style="stop-color:#4B9ED7"/>
</linearGradient>
<g id="ryxwSjEwkX_BygwsVPkQ" data-animator-group="true" data-animator-type="0"><path d="M71.6,73.5c7.3-9.8,13.3-21.3,13.3-32.6c0-15.7-9.9-28.4-34.8-28.4c0,0,0,0,0,0c0,0,0,0,0,0c0,0,0,0,0,0&#10;&#9;c-24.8,0-34.9,12.7-34.9,28.4c0,13.6,8,26.4,17.5,36.7l13.3,19.1h-2.4v3H45v5.9c0,1.1,0.9,1.9,1.9,1.9h8.7c1.1,0,1.9-0.9,1.9-1.9&#10;&#9;v-5.9H59v-3h-2.7L71.6,73.5z M52.9,87.7c1.9,0,3.9,0,5.8,0l-5.9,9h-3.1l-6.3-9c1.5,0,3,0,4.6,0C49.6,87.7,51.2,87.7,52.9,87.7z&#10;&#9; M73.5,40.8c0,16.4-9.5,33-17.3,43.9c-0.8,0-1.7,0-2.5,0c3.3-11.5,7-27.7,7-43.7c0-12.1-1.8-22.4-6.1-26.5&#10;&#9;C68,16.4,73.5,27.5,73.5,40.8z M45.4,14.5c-4.3,4.1-6.2,14.4-6.2,26.4c0,17,3.8,32.6,7.6,43.8c-0.5,0-0.9,0-1.4,0&#10;&#9;c-8.9-10.5-18.9-26.5-18.9-43.9C26.5,27.5,32.1,16.5,45.4,14.5z" id="ryxwSjEwkX"/></g>
<g id="rJbPHsED17_HJ0I3NDkm" data-animator-group="true" data-animator-type="0"><g id="rJbPHsED17">
	<path d="M16.3,30.3l11.5-10.7H2.4l11.5,10.7C14.6,31,15.6,31,16.3,30.3z M19.8,29.9l-2.1,2c-0.7,0.7-1.6,1-2.6,1&#10;&#9;&#9;c-0.9,0-1.9-0.3-2.6-1l-2-2L2.3,38h25.6L19.8,29.9z M21.4,28.5l8,8V21L21.4,28.5z M8.9,28.5l-8-7.5v15.5L8.9,28.5z" id="HJfvBjEw1Q"/>
</g></g>
<g id="HkmPBiVDyQ_ryOynEvyQ" data-animator-group="true" data-animator-type="0"><g id="HkmPBiVDyQ">
	<path d="M91.4,19.5l-1.5-4.2c0.5-1.1,0.7-2.4,0.7-3.7C90.6,6.2,86.3,2,81,2c-5.3,0-9.6,4.3-9.6,9.6&#10;&#9;&#9;c0,5.3,4.3,9.5,9.6,9.5c2.2,0,4.3-0.8,6-2.1l3.5,1.4C91.2,20.7,91.7,20.3,91.4,19.5z M76.3,12.8c-0.7,0-1.3-0.5-1.3-1.2&#10;&#9;&#9;c0-0.7,0.5-1.3,1.3-1.3c0.7,0,1.2,0.5,1.2,1.3C77.5,12.2,76.9,12.8,76.3,12.8z M80.8,12.8c-0.7,0-1.3-0.5-1.3-1.2&#10;&#9;&#9;c0-0.7,0.5-1.3,1.3-1.3c0.7,0,1.2,0.5,1.2,1.3C82,12.2,81.5,12.8,80.8,12.8z M85.3,12.8c-0.7,0-1.3-0.5-1.3-1.2&#10;&#9;&#9;c0-0.7,0.5-1.3,1.3-1.3c0.7,0,1.2,0.5,1.2,1.3C86.5,12.2,86,12.8,85.3,12.8z" id="HJ4PSiVv17"/>
</g></g>
<script>(function(){var a=document.querySelector('#H1PBoEvk7'),b=a.querySelectorAll('style'),c=function(d){b.forEach(function(f){var g=f.textContent;g&amp;&amp;(f.textContent=g.replace(/transform-box:[^;\r\n]*/gi,'transform-box: '+d))})};c('initial'),window.requestAnimationFrame(function(){return c('fill-box')})})();</script></svg>